<?xml version="1.0"?>
<svg xmlns="http://www.w3.org/2000/svg" height="512px" viewBox="0 0 64 64" width="512px" class=""><g><g id="Kettle"><path d="m27 49v4a2.006 2.006 0 0 0 2 2h24a2.006 2.006 0 0 0 2-2v-4z" fill="#9bc9ff" data-original="#9BC9FF" class="active-path" data-old_color="#9bc9ff" style="fill:#C2C2C2"/><path d="m46.33 31c-1.33 0-1.33 2-2.67 2s-1.33-2-2.66-2v13h8v-11c-1.33 0-1.33-2-2.67-2z" fill="#9bc9ff" data-original="#9BC9FF" class="active-path" data-old_color="#9bc9ff" style="fill:#C2C2C2"/><path d="m49 11a4 4 0 0 0 -4-4h-8a4 4 0 0 0 -4 4v2h16z" fill="#9bc9ff" data-original="#9BC9FF" class="active-path" data-old_color="#9bc9ff" style="fill:#C2C2C2"/><path d="m3 43a8 8 0 0 0 16 0v-12h-16z" fill="#9bc9ff" data-original="#9BC9FF" class="active-path" data-old_color="#9bc9ff" style="fill:#C2C2C2"/><g fill="#57a4ff"><path d="m21 34h-1v-3a1 1 0 0 0 -1-1h-16a1 1 0 0 0 -1 1v12a8.983 8.983 0 0 0 3.356 7h-2.356a1 1 0 0 0 -.895 1.447l2 4a1 1 0 0 0 .895.553h12a1 1 0 0 0 .895-.553l2-4a1 1 0 0 0 -.895-1.447h-2.356a8.991 8.991 0 0 0 3.3-6h1.056a3 3 0 0 0 3-3v-4a3 3 0 0 0 -3-3zm-3.618 18-1 2h-10.764l-1-2zm.618-9a7 7 0 0 1 -14 0v-11h14zm4-2a1 1 0 0 1 -1 1h-1v-6h1a1 1 0 0 1 1 1z" data-original="#57A4FF" class="" style="fill:#010101" data-old_color="#57A4FF"/><path d="m62 30v-10a5.006 5.006 0 0 0 -5-5h-3.206a5.006 5.006 0 0 0 -3.794-2.939v-1.061a5.006 5.006 0 0 0 -5-5h-.382l1.282-2.553a1 1 0 0 0 -.9-1.447h-8a1 1 0 0 0 -.9 1.447l1.282 2.553h-.382a5.006 5.006 0 0 0 -5 5v1.061a5.008 5.008 0 0 0 -3.8 2.939h-7.2a1 1 0 0 0 -.707 1.707l7.1 7.1-1.393 25.193v4a3 3 0 0 0 3 3h24a3 3 0 0 0 3-3h4v7h-19v2h20a1 1 0 0 0 1-1v-9a1 1 0 0 0 -1-1h-5v-2.056l-.777-13.944h1.777a5.006 5.006 0 0 0 5-5zm-23.382-26h4.764l-1 2h-2.764zm-1.618 4h8a3 3 0 0 1 3 3v1h-14v-1a3 3 0 0 1 3-3zm-13.586 9h5.5a1 1 0 0 0 .968-.748 3 3 0 0 1 2.898-2.252h16.44a3 3 0 0 1 2.992 2.835l1.732 31.165h-25.887l1.361-24.524a1 1 0 0 0 -.291-.763zm29.586 37h-24a1 1 0 0 1 -1-1v-3h26v3a1 1 0 0 1 -1 1zm1.223-37h2.777a3 3 0 0 1 3 3v10a3 3 0 0 1 -3 3h-1.888z" data-original="#57A4FF" class="" style="fill:#010101" data-old_color="#57A4FF"/><path d="m8.359 25.564a3.049 3.049 0 0 0 -1.359 2.436h2c0-.337.156-.5.641-.9a2.863 2.863 0 0 0 0-4.872c-.485-.4-.641-.562-.641-.9 0-.321.129-.471.64-.9a3.042 3.042 0 0 0 1.36-2.428h-2c0 .321-.129.471-.64.9a2.86 2.86 0 0 0 0 4.87c.485.4.641.562.641.9s-.157.491-.642.894z" data-original="#57A4FF" class="" style="fill:#010101" data-old_color="#57A4FF"/><path d="m13.359 25.564a3.049 3.049 0 0 0 -1.359 2.436h2c0-.337.156-.5.641-.9a2.863 2.863 0 0 0 0-4.872c-.485-.4-.641-.562-.641-.9 0-.321.129-.471.64-.9a3.042 3.042 0 0 0 1.36-2.428h-2c0 .321-.129.471-.64.9a2.86 2.86 0 0 0 0 4.87c.485.4.641.562.641.9s-.157.491-.642.894z" data-original="#57A4FF" class="" style="fill:#010101" data-old_color="#57A4FF"/><path d="m41 45h8a1 1 0 0 0 1-1v-24a1 1 0 0 0 -1-1h-8a1 1 0 0 0 -1 1v24a1 1 0 0 0 1 1zm1-2v-9.778a2.152 2.152 0 0 0 1.664.778 2.576 2.576 0 0 0 2.166-1.445c.522-.783.482-.783 1 0a3.4 3.4 0 0 0 1.17 1.196v9.249zm6-22v9.781a2.155 2.155 0 0 0 -1.668-.781 2.576 2.576 0 0 0 -2.166 1.445c-.519.78-.478.786-1 0a3.4 3.4 0 0 0 -1.166-1.195v-9.25z" data-original="#57A4FF" class="" style="fill:#010101" data-old_color="#57A4FF"/><path d="m34 23h4v2h-4z" data-original="#57A4FF" class="" style="fill:#010101" data-old_color="#57A4FF"/><path d="m34 27h4v2h-4z" data-original="#57A4FF" class="" style="fill:#010101" data-old_color="#57A4FF"/><path d="m34 31h4v2h-4z" data-original="#57A4FF" class="" style="fill:#010101" data-old_color="#57A4FF"/><path d="m34 35h4v2h-4z" data-original="#57A4FF" class="" style="fill:#010101" data-old_color="#57A4FF"/><path d="m34 39h4v2h-4z" data-original="#57A4FF" class="" style="fill:#010101" data-old_color="#57A4FF"/></g></g></g> </svg>
